<svg xmlns="http://www.w3.org/2000/svg" width="533.33" height="533.33" viewBox="0 0 533.333 533.333">
  <path d="M266.67 0C119.4 0 0 119.4 0 266.67s119.4 266.66 266.67 266.66 266.66-119.4 266.66-266.66C533.33 119.4 413.93 0 266.67 0zm25.85 356.3c-24.23-1.87-34.4-13.87-53.38-25.4-10.45 54.77-23.2 107.3-61 134.72-11.68-82.8 17.12-144.98 30.5-211-22.8-38.38 2.73-115.64 50.83-96.6 59.18 23.42-51.25 142.72 22.9 157.62 77.4 15.56 109-134.3 61-183.04C274 62.24 141.5 131 157.8 231.75c3.95 24.63 29.4 32.1 10.16 66.1-44.4-9.85-57.63-44.85-55.93-91.52 2.75-76.4 68.64-129.88 134.73-137.28 83.6-9.35 162.04 30.68 172.87 109.3 12.2 88.76-37.73 184.87-127.1 177.96z"/>
</svg>
