<svg xmlns="http://www.w3.org/2000/svg" viewBox="0 0 491.029 491.029" width="512" height="512">
  <g fill="#000">
    <path d="M470.13 1.5h-66.6c-9.4 0-17.7 5.2-19.8 14.62l-71.8 263.2H99.83l-51-155h225.8c11.4 0 20.8-9.4 20.8-20.8s-9.4-20.8-20.8-20.8H20.73c-15.5 0-23.6 15.2-19.8 27l64.5 196.7c3.1 8.3 11.4 13.5 19.8 13.5h241.4c9.4 0 17.7-6.2 20.8-13.5l71.8-263.2h51c11.4 0 20.8-9.4 20.8-20.8s-9.4-20.9-20.9-20.9zM283.93 350.1c-38.5 0-69.7 31.2-69.7 69.7s31.2 69.7 69.7 69.7c39.5 0 69.7-31.2 69.7-69.7s-31.2-69.69-69.7-69.69zm0 97.7c-15.6 0-29.1-13.5-29.1-29.1s12.5-29.1 29.1-29.1 29.1 13.5 29.1 29.1-12.5 29.12-29.1 29.12zM126.83 350.1c-38.5 0-69.7 31.2-69.7 69.7s31.2 69.7 69.7 69.7 69.7-31.2 69.7-69.7-31.2-69.69-69.7-69.69zm0 97.7c-15.6 0-29.1-13.5-29.1-29.1s12.5-29.1 29.1-29.1c15.6 0 29.1 13.5 29.1 29.1s-12.5 29.12-29.1 29.12z"/>
  </g>
</svg>
