<svg xmlns="http://www.w3.org/2000/svg" viewBox="0 0 41.754 41.754" width="20" height="11">
  <path d="M32.57 24.8c-1.95 0-3.54 1.6-3.54 3.54 0 1.95 1.6 3.54 3.54 3.54 1.95 0 3.54-1.6 3.54-3.54s-1.57-3.54-3.52-3.54zm0 5.1c-.86 0-1.55-.7-1.55-1.56 0-.85.7-1.55 1.55-1.55.85 0 1.55.67 1.55 1.53s-.7 1.55-1.55 1.55zM1.94 27.04zm-1.94 0h1.94c-.05.25-.1.5-.1.77 0 .24.04.45.08.66H0v-1.42zm11.52 0H13v1.42h-1.46c.02-.2.05-.43.05-.65 0-.25-.05-.5-.1-.76zm16.72.77c-.03.2-.05.44-.05.66v.4H13.4V27.8h14.84zM13.7 9.63v3.48h-.3v14.43h14.9c.43-2 2.2-3.5 4.32-3.5 1.94 0 3.6 1.27 4.2 3.02l.16.1h3.64V23.2h1.13V9.62H13.7zm25.9 15.76h-.55v-2.2h.55v2.2zM37 27.45h4v1.04h-3.96l.02-.4c0-.23-.02-.45-.05-.66zM.13 19.48v7.18H2.3c.5-2.04 2.36-3.56 4.56-3.56 2.2 0 4.06 1.52 4.57 3.56h1.6v-13.6h-10L.14 19.5zm11.8-5.37v3.38H8.1l-2.86 2.4h-3.8l2.12-5.76h8.37zM6.9 24.57c-2.1 0-3.8 1.7-3.8 3.8 0 2.1 1.7 3.8 3.8 3.8 2.1 0 3.8-1.7 3.8-3.8 0-2.1-1.7-3.8-3.8-3.8zm0 5.45c-.92 0-1.67-.73-1.67-1.65 0-.92.76-1.66 1.67-1.66.92 0 1.67.73 1.67 1.65S7.8 30 6.87 30z" fill="#FFF"/>
</svg>
